<svg width="50" height="50" viewBox="0 0 50 50" fill="none" xmlns="http://www.w3.org/2000/svg">
<g id="Group">
<path id="Vector" d="M24.9656 50C11.2096 50 0 38.775 0 25C0 11.225 11.2096 0 24.9656 0C38.7217 0 49.9313 11.225 49.9313 25C49.9313 38.775 38.7217 50 24.9656 50ZM24.9656 1.05C11.7838 1.05 1.04856 11.8 1.04856 25C1.04856 38.2 11.7838 48.95 24.9656 48.95C38.1475 48.95 48.8827 38.2 48.8827 25C48.8827 11.8 38.1475 1.05 24.9656 1.05Z" fill="white"/>
<path id="Vector_2" d="M21.6702 38.1249H26.9379V24.8999H30.6079L31.0073 20.4749H26.9379V17.9499C26.9379 16.8999 27.1377 16.4999 28.1612 16.4999H31.0073V11.8999H27.3623C23.4427 11.8999 21.6702 13.6249 21.6702 16.9499V20.4749H18.924V24.9499H21.6702V38.1249Z" fill="white"/>
</g>
</svg>
