<svg width="45" height="45" viewBox="0 0 45 45" fill="none" xmlns="http://www.w3.org/2000/svg">
<g id="Layer_1" clip-path="url(#clip0_1_38)">
<path id="Vector" d="M22.5 45C34.9264 45 45 34.9264 45 22.5C45 10.0736 34.9264 0 22.5 0C10.0736 0 0 10.0736 0 22.5C0 34.9264 10.0736 45 22.5 45Z" fill="#BCD7FD"/>
<g id="Group">
<path id="Vector_2" d="M7.875 32.0062C7.875 32.0062 23.9513 29.8237 33.5925 11.9924C34.1325 12.0824 30.2738 29.8237 8.7075 39.0599C13.1625 34.6049 12.7238 33.9412 12.7238 33.9412L7.875 32.0062Z" fill="#16458A"/>
<path id="Vector_3" d="M33.0863 12.5662C32.9963 12.5662 32.895 12.5437 32.805 12.5437C32.1525 12.4762 31.5113 12.4199 30.8588 12.3524C30.7238 12.3412 30.69 12.2624 30.7575 12.1499C30.8138 12.0487 30.87 11.9474 30.9263 11.8462C30.9488 11.8012 30.9825 11.7787 31.0275 11.7562C31.7363 11.5312 32.4562 11.3062 33.165 11.0924C33.3338 11.0474 33.435 10.9687 33.5138 10.8112C33.9525 9.91119 34.4138 9.02244 34.8637 8.13369C35.0213 7.81869 35.1788 7.50369 35.3363 7.18869C35.3363 7.16619 35.3475 7.15494 35.37 7.13244C35.3363 7.13244 35.3138 7.12119 35.2913 7.10994C33.6263 6.69369 31.9613 6.26619 30.2963 5.84994C29.9363 5.75994 29.5875 5.66994 29.2275 5.57994C29.115 5.55744 29.0925 5.48994 29.1488 5.38869C29.2725 5.16369 29.4075 4.93869 29.5313 4.70244C29.565 4.64619 29.5988 4.62369 29.6663 4.61244C31.5675 4.49994 33.48 4.37619 35.3813 4.26369C35.865 4.22994 36.3375 4.20744 36.8212 4.17369C36.855 4.17369 36.8775 4.16244 36.9 4.12869C37.1587 3.66744 37.4175 3.19494 37.6875 2.74494C37.935 2.31744 38.2163 1.90119 38.5763 1.55244C38.8125 1.32744 39.06 1.12494 39.3638 0.989937C39.5438 0.911187 39.735 0.866187 39.9375 0.911187C40.1963 0.967437 40.3538 1.12494 40.4438 1.36119C40.545 1.60869 40.5562 1.86744 40.5337 2.13744C40.5 2.55369 40.3763 2.94744 40.2188 3.32994C39.9713 3.90369 39.6675 4.44369 39.3638 4.98369C39.285 5.11869 39.2062 5.25369 39.1275 5.38869C39.1275 5.41119 39.1275 5.44494 39.1275 5.46744C39.3525 5.89494 39.5775 6.32244 39.8138 6.74994C40.7025 8.42619 41.6025 10.1024 42.5025 11.7787C42.5362 11.8462 42.5362 11.8912 42.5025 11.9587C42.3787 12.1837 42.255 12.3974 42.1313 12.6224C42.075 12.7237 42.0075 12.7349 41.9175 12.6562C40.8487 11.6212 39.7912 10.5862 38.7225 9.55119C38.295 9.13494 37.8563 8.70744 37.4288 8.29119C37.4175 8.27994 37.395 8.26869 37.3837 8.24619C37.35 8.29119 37.3275 8.33619 37.2938 8.38119C36.8663 9.07869 36.4387 9.77619 36.0112 10.4737C35.7412 10.9237 35.46 11.3624 35.19 11.8012C35.1563 11.8462 35.1563 11.8912 35.1675 11.9474C35.3813 12.7687 35.5837 13.5899 35.7975 14.3999C35.8088 14.4562 35.7975 14.5012 35.775 14.5574C35.7187 14.6587 35.6625 14.7599 35.6062 14.8612C35.5387 14.9737 35.46 14.9737 35.3813 14.8724C34.9313 14.2762 34.4813 13.6799 34.0313 13.0837C34.0088 13.0612 33.9975 13.0387 33.975 13.0162C33.9188 13.0837 33.8625 13.1399 33.8062 13.1962C33.6825 13.3199 33.5363 13.4212 33.3675 13.4662C33.21 13.5112 33.0975 13.4549 33.0525 13.2862C32.985 13.0612 33.0188 12.8474 33.0863 12.6337C33.0863 12.6112 33.0975 12.5887 33.1088 12.5662H33.0863Z" fill="#16458A"/>
</g>
<path id="Vector_4" d="M23.76 32.625H21.2287V14.6025H15.435V12.375H29.5875V14.6025H23.7712V32.625H23.76Z" fill="#287DFA"/>
</g>
<defs>
<clipPath id="clip0_1_38">
<rect width="45" height="45" fill="white"/>
</clipPath>
</defs>
</svg>
