<svg width="24" height="24" viewBox="0 0 24 24" fill="none" xmlns="http://www.w3.org/2000/svg">
<g id="Layer_1" clip-path="url(#clip0_1_528)">
<g id="Group 4260">
<g id="Group 3777">
<g id="Icon material-flight">
<path id="Path 3137" d="M23 11.61V10.5L19.07 7.73004V4.68004C19.1 4.25004 18.79 3.88004 18.38 3.85004C17.97 3.82004 17.62 4.15004 17.59 4.58004C17.59 4.62004 17.59 4.65004 17.59 4.69004V7.74004L13.66 10.51V11.62L17.59 10.23V13.28L16.61 14.11V14.94L18.33 14.39L20.05 14.94V14.11L19.07 13.28V10.23L23 11.62V11.61Z" fill="#287DFA"/>
</g>
<path id="Icon awesome-building" d="M13.32 19.1401H12.76V4.6101C12.77 4.2001 12.47 3.8601 12.08 3.8501H2.57999C2.18999 3.8601 1.88999 4.2101 1.89999 4.6101V19.1301H1.32999C1.13999 19.1301 0.98999 19.3101 0.98999 19.5101V20.1501H13.65V19.5101C13.65 19.3101 13.5 19.1301 13.31 19.1301L13.32 19.1401ZM4.61999 6.2701C4.61999 6.0701 4.75999 5.9001 4.95999 5.8901H6.08999C6.27999 5.8901 6.42999 6.0701 6.42999 6.2701V7.5401C6.42999 7.7401 6.28999 7.9101 6.08999 7.9201H4.95999C4.76999 7.9201 4.61999 7.7401 4.61999 7.5401V6.2701ZM4.61999 9.3301C4.61999 9.1301 4.75999 8.9601 4.95999 8.9501H6.08999C6.27999 8.9501 6.42999 9.1301 6.42999 9.3301V10.6001C6.42999 10.8001 6.28999 10.9701 6.08999 10.9801H4.95999C4.76999 10.9801 4.61999 10.8001 4.61999 10.6001V9.3301ZM6.08999 14.0401H4.95999C4.76999 14.0401 4.61999 13.8601 4.61999 13.6601V12.3901C4.61999 12.1901 4.75999 12.0201 4.95999 12.0101H6.08999C6.27999 12.0101 6.42999 12.1901 6.42999 12.3901V13.6601C6.42999 13.8601 6.28999 14.0301 6.08999 14.0401ZM8.23999 19.1401H6.42999V16.4601C6.42999 16.2601 6.56999 16.0901 6.76999 16.0801H7.89999C8.08999 16.0801 8.23999 16.2601 8.23999 16.4601V19.1401ZM10.05 13.6601C10.05 13.8601 9.90999 14.0301 9.70999 14.0401H8.57999C8.38999 14.0401 8.23999 13.8601 8.23999 13.6601V12.3901C8.23999 12.1901 8.37999 12.0201 8.57999 12.0101H9.70999C9.89999 12.0101 10.05 12.1901 10.05 12.3901V13.6601ZM10.05 10.6001C10.05 10.8001 9.90999 10.9701 9.70999 10.9801H8.57999C8.38999 10.9801 8.23999 10.8001 8.23999 10.6001V9.3301C8.23999 9.1301 8.37999 8.9601 8.57999 8.9501H9.70999C9.89999 8.9501 10.05 9.1301 10.05 9.3301V10.6001ZM10.05 7.5401C10.05 7.7401 9.90999 7.9101 9.70999 7.9201H8.57999C8.38999 7.9201 8.23999 7.7401 8.23999 7.5401V6.2701C8.23999 6.0701 8.37999 5.9001 8.57999 5.8901H9.70999C9.89999 5.8901 10.05 6.0701 10.05 6.2701V7.5401Z" fill="#287DFA"/>
<path id="Icon awesome-building-2" d="M16.59 19.8299H16.41V15.1799C16.41 15.0499 16.32 14.9399 16.19 14.9399H13.15C13.03 14.9399 12.93 15.0599 12.94 15.1799V19.8299H12.76C12.7 19.8299 12.65 19.8899 12.65 19.9499V20.1499H16.7V19.9499C16.7 19.8799 16.65 19.8299 16.59 19.8299ZM13.81 15.7099C13.81 15.6399 13.86 15.5899 13.92 15.5899H14.28C14.34 15.5899 14.39 15.6499 14.39 15.7099V16.1199C14.39 16.1899 14.34 16.2399 14.28 16.2399H13.92C13.86 16.2399 13.81 16.1799 13.81 16.1199V15.7099ZM13.81 16.6899C13.81 16.6199 13.86 16.5699 13.92 16.5699H14.28C14.34 16.5699 14.39 16.6299 14.39 16.6899V17.0999C14.39 17.1699 14.34 17.2199 14.28 17.2199H13.92C13.86 17.2199 13.81 17.1599 13.81 17.0999V16.6899ZM14.28 18.1999H13.92C13.86 18.1999 13.81 18.1399 13.81 18.0799V17.6699C13.81 17.5999 13.86 17.5499 13.92 17.5499H14.28C14.34 17.5499 14.39 17.6099 14.39 17.6699V18.0799C14.39 18.1499 14.35 18.1999 14.28 18.1999ZM14.97 19.8299H14.39V18.9799C14.39 18.9099 14.44 18.8599 14.5 18.8599H14.86C14.92 18.8599 14.97 18.9199 14.97 18.9799V19.8299ZM15.55 18.0799C15.55 18.1499 15.5 18.1999 15.44 18.1999H15.08C15.02 18.1999 14.97 18.1399 14.97 18.0799V17.6699C14.97 17.5999 15.02 17.5499 15.08 17.5499H15.44C15.5 17.5499 15.55 17.6099 15.55 17.6699V18.0799ZM15.55 17.0999C15.55 17.1699 15.5 17.2199 15.44 17.2199H15.08C15.02 17.2199 14.97 17.1599 14.97 17.0999V16.6899C14.97 16.6199 15.02 16.5699 15.08 16.5699H15.44C15.5 16.5699 15.55 16.6299 15.55 16.6899V17.0999ZM15.55 16.1199C15.55 16.1899 15.5 16.2399 15.44 16.2399H15.08C15.02 16.2399 14.97 16.1799 14.97 16.1199V15.7099C14.97 15.6399 15.02 15.5899 15.08 15.5899H15.44C15.5 15.5899 15.55 15.6499 15.55 15.7099V16.1199Z" fill="#287DFA"/>
</g>
</g>
</g>
<defs>
<clipPath id="clip0_1_528">
<rect width="24" height="24" fill="white"/>
</clipPath>
</defs>
</svg>
