<svg width="51" height="50" viewBox="0 0 51 50" fill="none" xmlns="http://www.w3.org/2000/svg">
<g id="Group">
<path id="Vector" d="M25.5 50C11.7439 50 0.534363 38.775 0.534363 25C0.534363 11.225 11.719 0 25.5 0C39.281 0 50.4656 11.225 50.4656 25C50.4656 38.775 39.2561 50 25.5 50ZM25.5 1.05C12.3181 1.05 1.58292 11.8 1.58292 25C1.58292 38.2 12.3181 48.95 25.5 48.95C38.6819 48.95 49.4171 38.2 49.4171 25C49.4171 11.8 38.6819 1.05 25.5 1.05Z" fill="white"/>
<g id="Group_2">
<path id="Vector_2" d="M25.5 15.2501C28.6706 15.2501 29.0451 15.2501 30.2934 15.3251C31.4418 15.3751 32.0909 15.5751 32.4904 15.7251C33.0396 15.9501 33.4391 16.2001 33.8635 16.6251C34.2879 17.0501 34.5376 17.4501 34.7623 18.0001C34.937 18.4251 35.1118 19.0501 35.1617 20.2001C35.2116 21.4501 35.2366 21.8251 35.2366 25.0001C35.2366 28.1751 35.2366 28.5501 35.1617 29.8001C35.1118 30.9501 34.912 31.6001 34.7623 32.0001C34.5376 32.5501 34.2879 32.9501 33.8635 33.3751C33.4391 33.8001 33.0396 34.0501 32.4904 34.2751C32.066 34.4501 31.4418 34.6251 30.2934 34.6751C29.0451 34.7251 28.6706 34.7501 25.5 34.7501C22.3294 34.7501 21.9549 34.7501 20.7066 34.6751C19.5582 34.6251 18.9091 34.4251 18.5096 34.2751C17.9604 34.0501 17.5609 33.8001 17.1365 33.3751C16.7121 32.9501 16.4624 32.5501 16.2377 32.0001C16.063 31.5751 15.8882 30.9501 15.8383 29.8001C15.7884 28.5501 15.7634 28.1751 15.7634 25.0001C15.7634 21.8251 15.7634 21.4501 15.8383 20.2001C15.8882 19.0501 16.088 18.4001 16.2377 18.0001C16.4624 17.4501 16.7121 17.0501 17.1365 16.6251C17.5609 16.2001 17.9604 15.9501 18.5096 15.7251C18.934 15.5501 19.5582 15.3751 20.7066 15.3251C21.9549 15.2751 22.3294 15.2501 25.5 15.2501ZM25.5 13.1001C22.2794 13.1001 21.88 13.1001 20.6067 13.1751C19.3335 13.2251 18.4847 13.4251 17.7107 13.7251C16.9368 14.0251 16.2627 14.4251 15.6136 15.1001C14.9645 15.7501 14.5401 16.4251 14.2405 17.2001C13.9409 17.9501 13.7412 18.8251 13.6913 20.1001C13.6413 21.3751 13.6164 21.7751 13.6164 25.0001C13.6164 28.2251 13.6164 28.6251 13.6913 29.9001C13.7412 31.1751 13.9409 32.0251 14.2405 32.8001C14.5401 33.5751 14.9395 34.2501 15.6136 34.9001C16.2877 35.5501 16.9368 35.9751 17.7107 36.2751C18.4597 36.5751 19.3335 36.7751 20.6067 36.8251C21.88 36.8751 22.2794 36.9001 25.5 36.9001C28.7206 36.9001 29.12 36.9001 30.3933 36.8251C31.6665 36.7751 32.5154 36.5751 33.2893 36.2751C34.0632 35.9751 34.7373 35.5751 35.3864 34.9001C36.0355 34.2501 36.4599 33.5751 36.7595 32.8001C37.0591 32.0501 37.2588 31.1751 37.3088 29.9001C37.3587 28.6251 37.3837 28.2251 37.3837 25.0001C37.3837 21.7751 37.3837 21.3751 37.3088 20.1001C37.2588 18.8251 37.0591 17.9751 36.7595 17.2001C36.4599 16.4251 36.0605 15.7501 35.3864 15.1001C34.7373 14.4501 34.0632 14.0251 33.2893 13.7251C32.5403 13.4251 31.6665 13.2251 30.3933 13.1751C29.12 13.1251 28.7206 13.1001 25.5 13.1001Z" fill="white"/>
<path id="Vector_3" d="M25.5 18.9001C22.1296 18.9001 19.4084 21.6251 19.4084 25.0001C19.4084 28.3751 22.1296 31.1001 25.5 31.1001C28.8704 31.1001 31.5916 28.3751 31.5916 25.0001C31.5916 21.6251 28.8704 18.9001 25.5 18.9001ZM25.5 28.9751C23.303 28.9751 21.5305 27.2001 21.5305 25.0001C21.5305 22.8001 23.303 21.0251 25.5 21.0251C27.697 21.0251 29.4695 22.8001 29.4695 25.0001C29.4695 27.2001 27.697 28.9751 25.5 28.9751Z" fill="white"/>
<path id="Vector_4" d="M33.2643 18.6501C33.2643 19.4501 32.6152 20.0751 31.8413 20.0751C31.0673 20.0751 30.4182 19.4251 30.4182 18.6501C30.4182 17.8751 31.0673 17.2251 31.8413 17.2251C32.6152 17.2251 33.2643 17.8751 33.2643 18.6501Z" fill="white"/>
</g>
</g>
</svg>
