<svg width="51" height="50" viewBox="0 0 51 50" fill="none" xmlns="http://www.w3.org/2000/svg">
<g id="Group">
<path id="Vector" d="M25.7547 50C11.9986 50 0.789062 38.775 0.789062 25C0.789062 11.225 11.9986 0 25.7547 0C39.5108 0 50.7204 11.225 50.7204 25C50.7204 38.775 39.5108 50 25.7547 50ZM25.7547 1.05C12.5728 1.05 1.83761 11.8 1.83761 25C1.83761 38.2 12.5728 48.95 25.7547 48.95C38.9366 48.95 49.6718 38.2 49.6718 25C49.6718 11.8 38.9366 1.05 25.7547 1.05Z" fill="white"/>
<path id="Vector_2" d="M13.6713 25.0001C13.6713 31.6751 19.0639 37.0751 25.7297 37.0751C26.5037 37.0751 27.2526 37.0001 28.0016 36.8501C29.0751 37.5001 30.2984 37.8751 31.6466 37.8751C35.5412 37.8751 38.6869 34.7251 38.6869 30.8251C38.6869 29.4501 38.2875 28.1751 37.6383 27.1001C37.7632 26.4251 37.8131 25.7001 37.8131 25.0001C37.8131 18.3251 32.4205 12.9251 25.7547 12.9251C25.0057 12.9251 24.2568 13.0001 23.5328 13.1251C22.4592 12.4751 21.2109 12.1001 19.8878 12.1001C15.9931 12.1001 12.8475 15.2501 12.8475 19.1501C12.8475 20.5001 13.222 21.7751 13.896 22.8501C13.7712 23.5501 13.6963 24.2751 13.6963 25.0001H13.6713ZM25.8795 16.4001C29.7742 16.6251 32.046 18.3501 32.2707 19.9501C32.3706 21.0001 31.6965 21.8001 30.4732 21.8001C28.7007 21.8001 28.5259 19.4501 25.505 19.4501C24.1319 19.4501 22.9835 20.0251 22.9835 21.2501C22.9835 23.8251 32.6952 22.3251 32.6952 28.0251C32.6952 31.3001 30.0738 33.4501 26.1791 33.4501C22.7339 33.4501 19.2886 31.9001 19.3136 29.2001C19.3136 28.4001 19.9127 27.6501 20.7366 27.6501C22.7588 27.6501 22.7339 30.6501 25.9544 30.6501C28.2263 30.6501 28.9753 29.4251 28.9753 28.5501C28.9753 25.4501 19.2137 27.3501 19.2137 21.5001C19.2137 18.3251 21.8101 16.1501 25.8795 16.4001Z" fill="white"/>
</g>
</svg>
