<svg width="73" height="60" viewBox="0 0 73 60" fill="none" xmlns="http://www.w3.org/2000/svg">
<g id="Layer_1" clip-path="url(#clip0_1_346)">
<g id="Group">
<path id="Vector" d="M21.06 2.96338H46.36C48.52 2.96338 50.27 4.72129 50.27 6.89105V37.3079H17.15V6.89105C17.15 4.72129 18.9 2.96338 21.06 2.96338Z" fill="#FFCA00"/>
<path id="Vector_2" d="M27.88 20.1106H17.15V28.86H27.88V20.1106Z" fill="#FFAC12"/>
<path id="Vector_3" d="M39.47 11.3611H27.96V20.1105H39.47V11.3611Z" fill="#FFAC12"/>
<path id="Vector_4" d="M39.47 28.8599H27.96V37.3079H39.47V28.8599Z" fill="#FFAC12"/>
<path id="Vector_5" d="M50.28 20.1106H39.37V28.86H50.28V20.1106Z" fill="#FFAC12"/>
<path id="Vector_6" d="M46.65 2.96338H20.78C18.78 2.96338 17.15 4.60075 17.15 6.60979V11.2306H50.28V6.60979C50.28 4.60075 48.65 2.96338 46.65 2.96338Z" fill="#EF3F0F"/>
<path id="Vector_7" d="M46.65 2.96338H33.71V11.2306H50.28V6.60979C50.28 4.60075 48.65 2.96338 46.65 2.96338Z" fill="#CC2A05"/>
<path id="Vector_8" d="M22.07 6.14767C21.72 6.14767 21.44 5.8664 21.44 5.51482V0.632848C21.44 0.281266 21.72 0 22.07 0C22.42 0 22.7 0.281266 22.7 0.632848V5.52486C22.7 5.87644 22.42 6.15771 22.07 6.15771V6.14767Z" fill="#383838"/>
<path id="Vector_9" d="M25.8701 6.14767C25.5201 6.14767 25.2401 5.8664 25.2401 5.51482V0.632848C25.2401 0.281266 25.5201 0 25.8701 0C26.2201 0 26.5001 0.281266 26.5001 0.632848V5.52486C26.5001 5.87644 26.2201 6.15771 25.8701 6.15771V6.14767Z" fill="#383838"/>
<path id="Vector_10" d="M29.66 6.14767C29.31 6.14767 29.03 5.8664 29.03 5.51482V0.632848C29.03 0.281266 29.31 0 29.66 0C30.01 0 30.29 0.281266 30.29 0.632848V5.52486C30.29 5.87644 30.01 6.15771 29.66 6.15771V6.14767Z" fill="#383838"/>
<path id="Vector_11" d="M33.45 6.14767C33.1 6.14767 32.82 5.8664 32.82 5.51482V0.632848C32.82 0.281266 33.1 0 33.45 0C33.8 0 34.08 0.281266 34.08 0.632848V5.52486C34.08 5.87644 33.8 6.15771 33.45 6.15771V6.14767Z" fill="#383838"/>
<path id="Vector_12" d="M37.25 6.14767C36.9 6.14767 36.62 5.8664 36.62 5.51482V0.632848C36.62 0.281266 36.9 0 37.25 0C37.6 0 37.88 0.281266 37.88 0.632848V5.52486C37.88 5.87644 37.6 6.15771 37.25 6.15771V6.14767Z" fill="#383838"/>
<path id="Vector_13" d="M41.04 6.14767C40.69 6.14767 40.41 5.8664 40.41 5.51482V0.632848C40.41 0.281266 40.69 0 41.04 0C41.39 0 41.67 0.281266 41.67 0.632848V5.52486C41.67 5.87644 41.39 6.15771 41.04 6.15771V6.14767Z" fill="#383838"/>
<path id="Vector_14" d="M44.83 6.14767C44.48 6.14767 44.2 5.8664 44.2 5.51482V0.632848C44.2 0.281266 44.48 0 44.83 0C45.18 0 45.46 0.281266 45.46 0.632848V5.52486C45.46 5.87644 45.18 6.15771 44.83 6.15771V6.14767Z" fill="#383838"/>
</g>
<g id="Group_2">
<path id="Vector_15" d="M32.05 31.763L32.74 30.1859L31.07 30.3265L31.75 28.7494L30.08 28.89L30.77 27.3129L29.1 27.4536L29.79 25.8765L29.62 25.8865L29.73 25.8062L28.08 25.9568L28.77 24.3697L27.1 24.5103L27.79 22.9332L26.12 23.0739L26.8 21.4968L25.13 21.6374L25.82 20.0603L25.65 20.0703L16.64 26.2883L20.6 32.0945L24.57 37.9106L33.7 31.6223L32.05 31.763Z" fill="#2DAAD6"/>
<path id="Vector_16" d="M24.5675 37.9097L16.6329 26.2866L-0.00164675 37.7452L7.93292 49.3683L24.5675 37.9097Z" fill="#383838"/>
<path id="Vector_17" d="M20.26 28.1066C20.19 28.1066 20.13 28.0765 20.09 28.0162C20.02 27.9258 20.05 27.7952 20.14 27.7249L22.55 26.0674C22.64 25.9971 22.77 26.0272 22.84 26.1176C22.91 26.208 22.88 26.3386 22.79 26.409L20.38 28.0664C20.38 28.0664 20.3 28.1066 20.26 28.1066Z" fill="#383838"/>
<path id="Vector_18" d="M21.11 29.3521C21.04 29.3521 20.98 29.322 20.94 29.2617C20.87 29.1713 20.9 29.0407 20.99 28.9704L25.26 26.0271C25.35 25.9568 25.48 25.987 25.55 26.0774C25.62 26.1678 25.59 26.2984 25.5 26.3687L21.23 29.3119C21.23 29.3119 21.15 29.3521 21.11 29.3521Z" fill="#383838"/>
<path id="Vector_19" d="M21.97 30.6077C21.9 30.6077 21.84 30.5776 21.8 30.5173C21.73 30.4269 21.76 30.2963 21.85 30.226L26.12 27.2827C26.21 27.2124 26.34 27.2426 26.41 27.333C26.48 27.4234 26.45 27.554 26.36 27.6243L22.09 30.5675C22.09 30.5675 22.01 30.6077 21.97 30.6077Z" fill="#383838"/>
<path id="Vector_20" d="M22.82 31.8633C22.75 31.8633 22.69 31.8332 22.65 31.7729C22.58 31.6825 22.61 31.5519 22.7 31.4816L26.97 28.5384C27.06 28.468 27.19 28.4982 27.26 28.5886C27.33 28.679 27.3 28.8096 27.21 28.8799L22.94 31.8231C22.94 31.8231 22.86 31.8633 22.82 31.8633Z" fill="#383838"/>
<path id="Vector_21" d="M23.6801 33.1192C23.6101 33.1192 23.5501 33.089 23.5101 33.0288C23.4401 32.9384 23.47 32.8078 23.56 32.7375L27.83 29.7942C27.9201 29.7239 28.0501 29.754 28.1201 29.8444C28.1901 29.9349 28.16 30.0654 28.07 30.1358L23.8 33.079C23.8 33.079 23.7201 33.1192 23.6801 33.1192Z" fill="#383838"/>
<path id="Vector_22" d="M24.53 34.3648C24.46 34.3648 24.4 34.3347 24.36 34.2744C24.29 34.184 24.32 34.0534 24.41 33.9831L28.68 31.0398C28.77 30.9695 28.9 30.9996 28.97 31.0901C29.04 31.1805 29.01 31.311 28.92 31.3814L24.65 34.3246C24.65 34.3246 24.57 34.3648 24.53 34.3648Z" fill="#383838"/>
<path id="Vector_23" d="M12.03 33.7719C11.96 33.7719 11.9 33.7418 11.86 33.6815C11.79 33.5911 11.82 33.4605 11.91 33.3902L14.84 31.3711C14.93 31.3008 15.06 31.3309 15.13 31.4214C15.2 31.5118 15.17 31.6423 15.08 31.7127L12.15 33.7318C12.15 33.7318 12.07 33.7719 12.03 33.7719Z" fill="white"/>
<path id="Vector_24" d="M12.88 35.0277C12.81 35.0277 12.75 34.9975 12.71 34.9373C12.64 34.8469 12.67 34.7163 12.76 34.646L17.94 31.0699C18.03 30.9995 18.16 31.0297 18.23 31.1201C18.3 31.2105 18.27 31.3411 18.18 31.4114L13 34.9875C13 34.9875 12.92 35.0277 12.88 35.0277Z" fill="white"/>
<path id="Vector_25" d="M13.66 36.1728C13.59 36.1728 13.53 36.1427 13.49 36.0824C13.42 35.992 13.45 35.8614 13.54 35.7911L16.47 33.772C16.56 33.7017 16.69 33.7318 16.76 33.8222C16.83 33.9126 16.8 34.0432 16.71 34.1135L13.78 36.1326C13.78 36.1326 13.7 36.1728 13.66 36.1728Z" fill="white"/>
<path id="Vector_26" d="M14.52 37.4185C14.45 37.4185 14.39 37.3884 14.35 37.3281C14.28 37.2377 14.31 37.1071 14.4 37.0368L19.58 33.4607C19.67 33.3904 19.8 33.4205 19.87 33.511C19.94 33.6014 19.91 33.7319 19.82 33.8023L14.64 37.3784C14.64 37.3784 14.56 37.4185 14.52 37.4185Z" fill="white"/>
<g id="Group_3">
<path id="Vector_27" d="M8.84004 35.9016C10.2 35.9016 11.54 36.5546 12.37 37.77C13.71 39.7289 13.21 42.4009 11.26 43.7469C10.52 44.2592 9.68004 44.5003 8.84004 44.5003C7.48004 44.5003 6.14004 43.8474 5.31004 42.6319C3.97004 40.6731 4.47004 38.0011 6.42004 36.655C7.16004 36.1427 8.00004 35.9016 8.84004 35.9016ZM8.84004 35.4797C7.89004 35.4797 6.97004 35.761 6.19004 36.3034C4.05004 37.77 3.51004 40.7133 4.97004 42.863C5.85004 44.1487 7.30004 44.9122 8.85004 44.9122C9.80004 44.9122 10.72 44.6309 11.5 44.0885C12.53 43.3753 13.23 42.3004 13.46 41.0649C13.69 39.8293 13.43 38.5737 12.72 37.529C11.84 36.2432 10.39 35.4797 8.84004 35.4797Z" fill="#63C4EE"/>
<path id="Vector_28" d="M6.43922 36.3263L6.09283 36.5649L11.2336 44.0955L11.58 43.8569L6.43922 36.3263Z" fill="#63C4EE"/>
<path id="Vector_29" d="M12.469 37.4436L4.97235 42.6077L5.20988 42.9556L12.7066 37.7916L12.469 37.4436Z" fill="#63C4EE"/>
<path id="Vector_30" d="M10.73 44.5304C7.45001 43.6264 6.20001 41.5671 5.72001 40.0101C5.20001 38.3225 5.46001 36.8659 5.47001 36.8057L5.88001 36.886C5.88001 36.886 5.63001 38.3124 6.12001 39.9096C6.77001 42.0292 8.36001 43.4556 10.84 44.1387L10.73 44.5405V44.5304Z" fill="#63C4EE"/>
<path id="Vector_31" d="M12.2301 43.506L11.8201 43.4658C12.0801 40.8942 11.3301 38.8852 9.58006 37.509C8.28006 36.4844 6.89006 36.2031 6.87006 36.2031L6.95006 35.7913C7.01006 35.8013 8.45006 36.0826 9.84006 37.1775C11.1201 38.1921 12.5701 40.1107 12.2301 43.506Z" fill="#63C4EE"/>
<path id="Vector_32" d="M4.34005 39.8093L4.30005 39.3975C4.30005 39.3975 8.12005 39.0057 9.72005 35.6606L10.1 35.8415C8.39005 39.4075 4.38005 39.8093 4.34005 39.8093Z" fill="#63C4EE"/>
<path id="Vector_33" d="M7.98004 44.7815L7.60004 44.6007C9.31004 41.0346 13.32 40.6328 13.36 40.6328L13.4 41.0447C13.4 41.0447 9.58004 41.4364 7.98004 44.7815Z" fill="#63C4EE"/>
</g>
</g>
<g id="Group_4">
<path id="Vector_34" d="M39.91 40.7834L40.87 39.357L39.2 39.1963L40.16 37.7699L38.49 37.5991L39.46 36.1727L37.79 36.0119L38.75 34.5855L38.58 34.5654L38.7 34.5052L37.05 34.3444L38.02 32.918L36.35 32.7573L37.31 31.3309L35.64 31.1601L36.6 29.7337L34.93 29.573L35.9 28.1466L35.72 28.1265L25.74 32.5966L28.59 39.0356L31.45 45.4745L41.56 40.9441L39.91 40.7834Z" fill="#63C4EE"/>
<path id="Vector_35" d="M31.4455 45.4624L25.739 32.5874L7.3128 40.8284L13.0193 53.7033L31.4455 45.4624Z" fill="#4D4F4E"/>
<path id="Vector_36" d="M29.01 35.0476C28.93 35.0476 28.85 34.9974 28.82 34.9271C28.77 34.8166 28.82 34.696 28.93 34.6458L31.6 33.4504C31.71 33.4002 31.83 33.4504 31.88 33.5609C31.93 33.6714 31.88 33.792 31.77 33.8422L29.1 35.0376C29.1 35.0376 29.04 35.0577 29.02 35.0577L29.01 35.0476Z" fill="#383838"/>
<path id="Vector_37" d="M29.63 36.4339C29.55 36.4339 29.47 36.3837 29.44 36.3134C29.39 36.2029 29.44 36.0823 29.55 36.0321L34.27 33.9226C34.38 33.8724 34.5 33.9226 34.55 34.0331C34.6 34.1436 34.55 34.2641 34.44 34.3144L29.72 36.4238C29.72 36.4238 29.66 36.4439 29.64 36.4439L29.63 36.4339Z" fill="#383838"/>
<path id="Vector_38" d="M30.24 37.8201C30.16 37.8201 30.08 37.7699 30.05 37.6996C30 37.5891 30.05 37.4685 30.16 37.4183L34.88 35.3088C34.99 35.2586 35.11 35.3088 35.16 35.4193C35.21 35.5298 35.16 35.6504 35.05 35.7006L30.33 37.8101C30.33 37.8101 30.27 37.8302 30.25 37.8302L30.24 37.8201Z" fill="#383838"/>
<path id="Vector_39" d="M30.86 39.2064C30.78 39.2064 30.7 39.1561 30.67 39.0858C30.62 38.9753 30.67 38.8548 30.78 38.8045L35.5 36.6951C35.61 36.6448 35.73 36.6951 35.78 36.8055C35.83 36.916 35.78 37.0366 35.67 37.0868L30.95 39.1963C30.95 39.1963 30.89 39.2164 30.87 39.2164L30.86 39.2064Z" fill="#383838"/>
<path id="Vector_40" d="M31.47 40.5926C31.39 40.5926 31.31 40.5424 31.28 40.472C31.23 40.3615 31.28 40.241 31.39 40.1908L36.11 38.0813C36.22 38.0311 36.34 38.0813 36.39 38.1918C36.44 38.3023 36.39 38.4228 36.28 38.473L31.56 40.5825C31.56 40.5825 31.5 40.6026 31.48 40.6026L31.47 40.5926Z" fill="#383838"/>
<path id="Vector_41" d="M32.09 41.9888C32.01 41.9888 31.93 41.9386 31.9 41.8683C31.85 41.7578 31.9 41.6372 32.01 41.587L36.73 39.4775C36.84 39.4273 36.96 39.4775 37.01 39.588C37.06 39.6985 37.01 39.8191 36.9 39.8693L32.18 41.9788C32.18 41.9788 32.12 41.9989 32.1 41.9989L32.09 41.9888Z" fill="#383838"/>
<path id="Vector_42" d="M19.89 39.1259C19.81 39.1259 19.73 39.0757 19.7 39.0054C19.65 38.8949 19.7 38.7743 19.81 38.7241L23.06 37.2676C23.17 37.2173 23.29 37.2676 23.34 37.3781C23.39 37.4886 23.34 37.6091 23.23 37.6593L19.98 39.1159C19.98 39.1159 19.92 39.136 19.9 39.136L19.89 39.1259Z" fill="white"/>
<path id="Vector_43" d="M20.51 40.5122C20.43 40.5122 20.35 40.462 20.32 40.3916C20.27 40.2811 20.32 40.1606 20.43 40.1104L26.17 37.5388C26.28 37.4886 26.4 37.5388 26.45 37.6493C26.5 37.7598 26.45 37.8803 26.34 37.9306L20.6 40.5021C20.6 40.5021 20.54 40.5222 20.52 40.5222L20.51 40.5122Z" fill="white"/>
<path id="Vector_44" d="M21.07 41.7778C20.99 41.7778 20.91 41.7276 20.88 41.6572C20.83 41.5467 20.88 41.4262 20.99 41.376L24.24 39.9194C24.35 39.8692 24.47 39.9194 24.52 40.0299C24.57 40.1404 24.52 40.261 24.41 40.3112L21.16 41.7677C21.16 41.7677 21.1 41.7878 21.08 41.7878L21.07 41.7778Z" fill="white"/>
<path id="Vector_45" d="M21.68 43.164C21.6 43.164 21.52 43.1138 21.49 43.0435C21.44 42.933 21.49 42.8125 21.6 42.7622L27.34 40.1907C27.45 40.1404 27.57 40.1907 27.62 40.3012C27.67 40.4117 27.62 40.5322 27.51 40.5824L21.77 43.154C21.77 43.154 21.71 43.1741 21.69 43.1741L21.68 43.164Z" fill="white"/>
<g id="Group_5">
<path id="Vector_46" d="M15.56 40.5625C17.2 40.5625 18.76 41.5168 19.47 43.114C20.43 45.2838 19.47 47.8252 17.3 48.7895C16.73 49.0407 16.14 49.1612 15.56 49.1612C13.92 49.1612 12.36 48.2069 11.65 46.6097C10.69 44.44 11.65 41.8985 13.82 40.9342C14.39 40.6831 14.98 40.5625 15.56 40.5625ZM15.56 40.1406C14.9 40.1406 14.26 40.2813 13.65 40.5525C11.28 41.6072 10.22 44.3998 11.27 46.7805C12.02 48.4781 13.71 49.5831 15.56 49.5831C16.22 49.5831 16.86 49.4425 17.47 49.1713C18.62 48.659 19.49 47.7248 19.94 46.5495C20.39 45.3742 20.36 44.0884 19.85 42.9432C19.1 41.2456 17.41 40.1406 15.56 40.1406Z" fill="#63C4EE"/>
<path id="Vector_47" d="M13.9061 40.5954L13.5224 40.7671L17.2211 49.1081L17.6047 48.9364L13.9061 40.5954Z" fill="#63C4EE"/>
<path id="Vector_48" d="M19.6308 42.8102L11.3267 46.5242L11.4975 46.9096L19.8017 43.1956L19.6308 42.8102Z" fill="#63C4EE"/>
<path id="Vector_49" d="M16.64 49.4626C13.58 47.9759 12.71 45.7258 12.53 44.0984C12.33 42.3405 12.84 40.9643 12.86 40.9041L13.25 41.0547C13.25 41.0547 12.75 42.4108 12.94 44.0683C13.2 46.2682 14.51 47.9558 16.82 49.0808L16.64 49.4626Z" fill="#63C4EE"/>
<path id="Vector_50" d="M18.3 48.7292L17.9 48.6086C18.62 46.1275 18.24 44.018 16.77 42.3404C15.67 41.0948 14.36 40.5725 14.34 40.5624L14.49 40.1707C14.55 40.1907 15.92 40.7332 17.08 42.0591C18.16 43.2847 19.24 45.4343 18.29 48.7191L18.3 48.7292Z" fill="#63C4EE"/>
<path id="Vector_51" d="M11.56 43.6665C11.34 43.6665 11.21 43.6564 11.2 43.6564L11.24 43.2446C11.24 43.2446 15.06 43.556 17.25 40.5625L17.59 40.8136C15.67 43.4455 12.6 43.6765 11.57 43.6765L11.56 43.6665Z" fill="#63C4EE"/>
<path id="Vector_52" d="M13.89 49.2015L13.55 48.9503C15.88 45.7559 19.89 46.0874 19.93 46.0975L19.89 46.5093C19.89 46.5093 16.07 46.1979 13.88 49.1914L13.89 49.2015Z" fill="#63C4EE"/>
</g>
</g>
<g id="Group_6">
<path id="Vector_53" d="M42.83 48.2671L34.29 47.9858L40.69 52.4861L42.83 48.2671Z" fill="#4D4F4E"/>
<path id="Vector_54" d="M46.84 51.6223L48.67 60L43.1 54.4952L46.84 51.6223Z" fill="#383838"/>
<path id="Vector_55" d="M56.99 26.8509L34.8 23.1743C33.56 22.9634 32.94 24.6309 34.01 25.2939L51.26 36.002L56.99 26.8509Z" fill="#4D4F4E"/>
<path id="Vector_56" d="M65.29 33.792L72.92 55.0376C73.35 56.233 71.83 57.1471 70.99 56.2029L57.38 41.1049L65.3 33.782L65.29 33.792Z" fill="#383838"/>
<path id="Vector_57" d="M68.94 25.9166L67.81 31.6022C67.64 32.4661 67.17 33.2396 66.48 33.782L44.3 53.9026C43.5 54.6359 42.29 54.666 41.46 53.9729C40.63 53.2798 40.44 52.0744 41.01 51.1502L56.68 25.5852C57.09 24.8117 57.76 24.1989 58.57 23.8775L63.93 21.7278C65.34 21.1653 66.78 21.5269 67.76 22.4008C68.68 23.2245 69.21 24.5003 68.93 25.9066L68.94 25.9166Z" fill="#EF3F0F"/>
<path id="Vector_58" d="M68.94 25.9167L67.81 31.6022C67.64 32.4661 67.17 33.2396 66.48 33.7821L44.3 53.9026C43.5 54.6359 42.29 54.666 41.46 53.9729L67.77 22.4109C68.69 23.2346 69.22 24.5103 68.94 25.9167Z" fill="#CC2A05"/>
</g>
</g>
<defs>
<clipPath id="clip0_1_346">
<rect width="73" height="60" fill="white"/>
</clipPath>
</defs>
</svg>
