<svg width="73" height="56" viewBox="0 0 73 56" fill="none" xmlns="http://www.w3.org/2000/svg">
<g id="Layer_1" clip-path="url(#clip0_1_415)">
<path id="Vector" d="M71.8802 49.8935C69.2861 51.2474 63.258 51.8922 56.9219 52.8224C50.4552 53.6882 43.6712 54.8395 36.4953 55.5764C29.3194 56.3132 22.5448 56.129 16.0688 54.8395C9.73271 53.6145 3.70459 51.2751 1.11045 49.3409C-1.4837 47.2869 0.410588 46.4303 6.87729 45.6382C13.2133 44.9014 24.1218 44.2198 36.486 43.658C48.8502 43.0961 59.7587 43.7501 66.0947 45.1685C72.5614 46.5316 74.4557 48.6593 71.8616 49.8935H71.8802Z" fill="#63C4EE"/>
<path id="Vector_2" d="M8.40764 50.1145C8.09037 50.1145 7.9504 49.7184 8.19302 49.525C10.8058 47.4434 20.5759 40.5171 35.3476 40.5171C50.1193 40.5171 61.261 47.4066 64.3311 49.5158C64.6017 49.7 64.471 50.1145 64.1444 50.1145H8.40764Z" fill="#FFAC12"/>
<path id="Vector_3" d="M58.0977 52.0947H14.5664C14.1838 52.0947 13.9412 51.671 14.1465 51.3487C16.0315 48.3921 23.7113 37.625 35.4036 37.5237C35.4502 37.5237 35.5062 37.5237 35.5529 37.5237C48.6636 37.5237 56.586 48.3737 58.5083 51.3395C58.7136 51.6618 58.4803 52.0855 58.0977 52.0855V52.0947Z" fill="#FFCA00"/>
<path id="Vector_4" d="M36.9619 40.5172C36.9619 40.5172 35.8608 41.1711 34.3211 41.3001C33.304 41.383 32.0909 41.2356 30.8871 40.5172C33.0707 32.2461 25.6055 19.0014 25.6055 19.0014L26.7626 18.4764C27.0332 18.3567 27.3692 18.2001 27.7798 18.0159C39.1828 29.7685 36.9619 40.5264 36.9619 40.5264V40.5172Z" fill="#4D4F4E"/>
<path id="Vector_5" d="M34.3211 41.3C33.304 41.3829 32.0909 41.2355 30.8871 40.5171C33.0707 32.2461 25.6055 19.0013 25.6055 19.0013L26.7626 18.4763C33.3133 25.4026 34.2838 40.6461 34.3211 41.3092V41.3Z" fill="#383838"/>
<path id="Vector_6" d="M27.0799 18.7159C27.0799 18.7159 16.498 11.8632 11.6737 23.3488C6.84931 34.8343 13.372 25.983 13.372 25.983C13.372 25.983 14.5664 30.0356 15.3596 28.3961C16.1528 26.7567 16.666 25.7067 16.666 25.7067C16.666 25.7067 17.3192 28.5804 17.8231 27.5396C18.327 26.4988 19.0829 24.1685 19.0829 24.1685C19.0829 24.1685 19.5961 26.1764 19.9693 25.7988C20.3333 25.4211 21.509 19.508 27.0799 18.7159Z" fill="#32D4C5"/>
<path id="Vector_7" d="M26.9119 18.7988C26.9119 18.7988 31.9043 7.31325 42.3462 14.258C52.7974 21.2027 42.4115 17.3804 42.4115 17.3804C42.4115 17.3804 43.6806 21.4054 42.1035 20.4751C40.5172 19.5448 39.5094 18.9461 39.5094 18.9461C39.5094 18.9461 40.5732 21.7001 39.5654 21.1014C38.5576 20.5027 36.626 18.983 36.626 18.983C36.626 18.983 37.3165 20.9356 36.8033 20.8251C36.29 20.7146 31.9976 16.4225 26.9119 18.7988Z" fill="#21C1AD"/>
<path id="Vector_8" d="M26.8932 18.946C26.8932 18.946 22.1995 7.34998 34.5544 4.96446C46.9092 2.57893 36.8312 7.12893 36.8312 7.12893C36.8312 7.12893 40.6198 9.09077 38.8282 9.53288C37.0365 9.97498 35.8981 10.2605 35.8981 10.2605C35.8981 10.2605 38.6229 11.4579 37.4844 11.7434C36.346 12.0289 33.8918 12.296 33.8918 12.296C33.8918 12.296 35.7861 13.1895 35.3382 13.475C34.8903 13.7605 28.7782 13.7145 26.8932 18.946Z" fill="#32D4C5"/>
<path id="Vector_9" d="M26.8279 18.5592C26.8279 18.5592 26.6227 6.06972 14.2865 8.58419C1.95027 11.0987 13.0267 11.4487 13.0267 11.4487C13.0267 11.4487 10.3019 14.7 12.1309 14.4329C13.9505 14.1566 15.117 13.9908 15.117 13.9908C15.117 13.9908 13.0734 16.1368 14.2305 15.9618C15.3876 15.7868 17.7671 15.096 17.7671 15.096C17.7671 15.096 16.3767 16.6434 16.8993 16.7355C17.4218 16.8276 23.0394 14.4605 26.8279 18.5684V18.5592Z" fill="#32D4C5"/>
<path id="Vector_10" d="M26.9399 18.8262C26.9399 18.8262 24.1125 15.0683 23.4873 12.1578C22.8621 9.24728 24.0938 4.92754 25.7455 2.32096C27.3972 -0.285619 26.8186 4.56833 26.8186 4.56833C26.8186 4.56833 28.5916 3.79464 28.5729 4.37491C28.5543 4.95517 27.2385 6.59464 27.2385 6.59464C27.2385 6.59464 29.3661 6.27228 28.8155 6.80649C28.265 7.3407 25.6428 14.8657 26.9399 18.8262Z" fill="#21C1AD"/>
<path id="Vector_11" d="M59.4974 4.99211C59.4974 7.74605 57.2298 9.98421 54.4397 9.98421C53.7212 9.98421 53.0493 9.83684 52.4241 9.56974C50.6325 8.80526 49.3821 7.03684 49.3821 4.99211C49.3821 2.23816 51.6496 0 54.4397 0C55.1769 0 55.8768 0.156579 56.5113 0.432895C58.275 1.21579 59.4974 2.95658 59.4974 4.99211Z" fill="#FFCA00"/>
<path id="Vector_12" d="M48.3183 45.2882C48.3183 45.758 46.0507 46.1448 43.2513 46.1448C40.4519 46.1448 38.1843 45.758 38.1843 45.2882C38.1843 44.8185 40.4519 44.4316 43.2513 44.4316C46.0507 44.4316 48.3183 44.8185 48.3183 45.2882Z" fill="#FFB000"/>
<path id="Vector_13" d="M42.8314 44.9197L51.0617 27.1157H51.7616L43.326 45.1499C43.2606 45.2881 43.0927 45.3434 42.9527 45.2789C42.8221 45.2144 42.7661 45.0578 42.8314 44.9289V44.9197Z" fill="#D63C12"/>
<path id="Vector_14" d="M62.6981 34.7605C62.6981 34.7605 60.5612 34.8987 56.9966 34.0421C55.6902 33.7289 54.1878 33.2776 52.5268 32.6421C51.5377 32.2645 50.4925 31.8131 49.3914 31.2881C48.6262 30.9197 47.8424 30.5145 47.0306 30.0631C45.7428 29.3447 44.3898 28.525 42.9994 27.5763C41.6836 26.6737 40.3212 25.6605 38.9402 24.5276C38.9402 24.5276 47.5811 19.2684 54.4397 22.0868C54.4677 22.096 54.4957 22.1052 54.5237 22.1237C54.6917 22.1881 54.8503 22.271 55.0183 22.3447C61.9609 25.725 62.6981 34.7605 62.6981 34.7605Z" fill="#FF642E"/>
<path id="Vector_15" d="M54.4398 22.0959C50.8005 25.7341 48.4863 28.3131 47.0212 30.0815C45.7335 29.3631 44.3804 28.5433 42.9901 27.5946C42.9901 27.5946 48.1503 22.5473 54.4304 22.1052L54.4398 22.0959Z" fill="#FFCA00"/>
<path id="Vector_16" d="M62.6981 34.7606C62.6981 34.7606 60.5612 34.8988 56.9966 34.0422C55.6902 33.729 54.1878 33.2777 52.5268 32.6422C51.5377 32.2645 50.4925 31.8132 49.3914 31.2882L54.4491 22.0869C54.4491 22.0869 54.5051 22.1053 54.5331 22.1238C54.701 22.1882 54.8597 22.2711 55.0276 22.3448C61.9702 25.7251 62.7074 34.7606 62.7074 34.7606H62.6981Z" fill="#EF3F0F"/>
<path id="Vector_17" d="M56.9872 34.0513C55.6808 33.7381 54.1785 33.2868 52.5175 32.6513C53.0493 30.45 53.7212 27.0973 54.4397 22.0868C54.4397 22.0592 54.4397 22.0315 54.4491 22.0039C54.4771 22.0407 54.4957 22.0776 54.5237 22.1236C57.4911 26.7105 57.1179 32.7065 56.9872 34.0421V34.0513Z" fill="#FFAC12"/>
<path id="Vector_18" d="M59.4973 4.99211C59.4973 7.74605 57.2298 9.98421 54.4397 9.98421V0C55.1769 0 55.8767 0.156579 56.5113 0.432895C58.2749 1.21579 59.4973 2.95658 59.4973 4.99211Z" fill="#FFAC12"/>
</g>
<defs>
<clipPath id="clip0_1_415">
<rect width="73" height="56" fill="white"/>
</clipPath>
</defs>
</svg>
