<svg width="73" height="60" viewBox="0 0 73 60" fill="none" xmlns="http://www.w3.org/2000/svg">
<g id="Layer_1" clip-path="url(#clip0_1_287)">
<g id="Group">
<g id="Group_2">
<path id="Vector" d="M72.973 50.7984V49.1205H0V51.2495H0.0180114C0.117074 51.7817 0.567357 52.2238 1.17974 52.2238H71.8113C72.6038 52.2238 73.1171 51.4931 72.973 50.7894V50.7984Z" fill="#A7A9AC"/>
<path id="Vector_2" d="M71.8113 50.5638H1.18876C0.234155 50.5638 -0.333203 49.4813 0.216143 48.6964L6.27696 39.991H66.7231L72.7839 48.6964C73.3332 49.4813 72.7659 50.5638 71.8113 50.5638Z" fill="#D1D3D4"/>
<path id="Vector_3" d="M4.85408 47.0456L7.64584 43.0311C7.72689 42.9229 7.85297 42.8507 7.97905 42.8507H65.012C65.1471 42.8507 65.2732 42.9139 65.3452 43.0311L68.137 47.0456C68.3261 47.3162 68.137 47.6951 67.8037 47.6951H5.18729C4.85408 47.6951 4.65595 47.3162 4.84507 47.0456H4.85408Z" fill="#BCBEC0"/>
<path id="Vector_4" d="M65.6964 0H7.30362C5.8314 0 4.63794 1.19552 4.63794 2.67027V38.9896C4.63794 40.4644 5.8314 41.6599 7.30362 41.6599H65.6964C67.1686 41.6599 68.3621 40.4644 68.3621 38.9896V2.67027C68.3621 1.19552 67.1686 0 65.6964 0Z" fill="#D8D8D8"/>
<path id="Vector_5" d="M36.5 0V41.6599H7.31259C5.83566 41.6599 4.64691 40.4601 4.64691 38.9896V2.67027C4.64691 1.1908 5.84467 0 7.31259 0H36.5Z" fill="#E6E7E8"/>
<path id="Vector_6" d="M64.6787 3.6897H8.32123V37.9793H64.6787V3.6897Z" fill="#63C4EE"/>
<path id="Vector_7" d="M64.6788 3.6897H36.5V37.9793H64.6788V3.6897Z" fill="#2DAAD6"/>
</g>
<path id="Vector_8" d="M58.4378 9.36401H14.9674V38.0244H58.4378V9.36401Z" fill="white"/>
<g id="Group_3">
<path id="Vector_9" d="M18.7589 15.1736V29.2106H26.4587V13.4686C26.4587 13.4686 21.3255 13.6581 18.7589 15.1646V15.1736Z" fill="#4D4F4E"/>
<path id="Vector_10" d="M34.1585 15.1736V29.2106H26.4587V13.4686C26.4587 13.4686 31.5919 13.6581 34.1585 15.1646V15.1736Z" fill="#383838"/>
<path id="Vector_11" d="M33.276 12.5034C33.0599 13.7663 32.8347 15.0383 32.6186 16.3013C30.6283 15.9495 28.6201 15.7781 26.6118 15.7781C24.6035 15.7781 22.5953 15.9495 20.605 16.3013C20.3889 15.0383 20.1637 13.7663 19.9386 12.5034C22.145 12.1155 24.3784 11.926 26.6028 11.926C28.8272 11.926 31.0606 12.1155 33.267 12.5034H33.276Z" fill="#EF3F0F"/>
<path id="Vector_12" d="M33.276 12.5034C33.0599 13.7663 32.8347 15.0383 32.6186 16.3013C30.6283 15.9495 28.6201 15.7781 26.6118 15.7781V11.926C28.8452 11.926 31.0696 12.1155 33.276 12.5034Z" fill="#CC2A05"/>
<g id="Group_4">
<path id="Vector_13" d="M23.8921 15.0474L23.5139 15.0925L23.4148 14.3167L22.7034 14.4069L22.8024 15.1827L22.4242 15.2279L22.199 13.4417L22.5773 13.3965L22.6673 14.1002L23.3788 14.01L23.2887 13.3063L23.667 13.2612L23.8921 15.0474Z" fill="white"/>
<path id="Vector_14" d="M26.0444 13.9829C26.0624 14.2806 26.0084 14.5152 25.8643 14.6866C25.7202 14.858 25.5221 14.9482 25.2429 14.9662C24.9638 14.9843 24.7476 14.9211 24.5945 14.7678C24.4324 14.6144 24.3514 14.3889 24.3334 14.0912C24.3153 13.7935 24.3694 13.5589 24.5135 13.3875C24.6486 13.2161 24.8557 13.1259 25.1349 13.1079C25.414 13.0898 25.6302 13.153 25.7833 13.3063C25.9364 13.4597 26.0264 13.6852 26.0444 13.9829ZM24.7296 14.0641C24.7386 14.2626 24.7926 14.4159 24.8737 14.5152C24.9548 14.6144 25.0718 14.6595 25.2249 14.6505C25.5311 14.6324 25.6662 14.4159 25.6392 14.01C25.6122 13.604 25.4501 13.4146 25.1439 13.4326C24.9908 13.4416 24.8827 13.5048 24.8107 13.604C24.7386 13.7123 24.7116 13.8656 24.7206 14.0641H24.7296Z" fill="white"/>
<path id="Vector_15" d="M27.2962 14.876H26.918V13.3875H26.4317V13.0718H27.7916V13.3875H27.3053V14.876H27.2962Z" fill="white"/>
<path id="Vector_16" d="M29.2235 14.9572L28.1878 14.8941L28.3049 13.0898L29.3405 13.153L29.3225 13.4687L28.6651 13.4236L28.6381 13.8206L29.2505 13.8566L29.2325 14.1724L28.6201 14.1363L28.5931 14.5964L29.2505 14.6415L29.2325 14.9572H29.2235Z" fill="white"/>
<path id="Vector_17" d="M29.7098 15.0023L29.9709 13.2161L30.3492 13.2702L30.133 14.7406L30.8535 14.8489L30.8085 15.1646L29.7098 15.0023Z" fill="white"/>
</g>
<path id="Vector_18" d="M26.4497 18.5657H20.7671V21.9757H26.4497V18.5657Z" fill="#63C4EE"/>
<path id="Vector_19" d="M32.1413 18.5657H26.4587V21.9757H32.1413V18.5657Z" fill="#2DAAD6"/>
<path id="Vector_20" d="M26.4587 23.4731H21.0733V26.8832H26.4587V23.4731Z" fill="#63C4EE"/>
<path id="Vector_21" d="M31.8441 23.4731H26.4587V26.8832H31.8441V23.4731Z" fill="#2DAAD6"/>
</g>
<path id="Vector_22" d="M54.4934 25.0699H38.4272V29.2107H54.4934V25.0699Z" fill="#FFCA00"/>
<g id="Group_5">
<path id="Vector_23" d="M40.0753 26.2426H40.5616C40.7777 26.2426 40.9398 26.2696 41.0389 26.3328C41.1379 26.3959 41.192 26.4951 41.192 26.6305C41.192 26.7207 41.1739 26.8019 41.1289 26.856C41.0839 26.9191 41.0299 26.9552 40.9578 26.9642C41.0569 27.0003 41.1289 27.0364 41.1739 27.0996C41.219 27.1627 41.237 27.2439 41.237 27.3431C41.237 27.4875 41.183 27.5957 41.0839 27.6769C40.9848 27.7581 40.8407 27.7942 40.6696 27.7942H40.0933V26.2426H40.0753ZM40.4085 26.856H40.5976C40.6876 26.856 40.7507 26.838 40.7957 26.8109C40.8317 26.7838 40.8587 26.7387 40.8587 26.6756C40.8587 26.6124 40.8407 26.5763 40.7957 26.5493C40.7507 26.5222 40.6876 26.5132 40.5886 26.5132H40.4175V26.856H40.4085ZM40.4085 27.1176V27.5236H40.6246C40.7147 27.5236 40.7777 27.5055 40.8227 27.4694C40.8678 27.4334 40.8858 27.3792 40.8858 27.3071C40.8858 27.1808 40.7957 27.1176 40.6066 27.1176H40.3995H40.4085Z" fill="black"/>
<path id="Vector_24" d="M42.9481 27.0185C42.9481 27.2801 42.885 27.4695 42.7589 27.6139C42.6329 27.7582 42.4527 27.8214 42.2096 27.8214C41.9664 27.8214 41.7863 27.7492 41.6602 27.6139C41.5342 27.4785 41.4711 27.2801 41.4711 27.0185C41.4711 26.7568 41.5342 26.5584 41.6602 26.4231C41.7863 26.2877 41.9664 26.2156 42.2096 26.2156C42.4527 26.2156 42.6329 26.2877 42.7589 26.4231C42.885 26.5584 42.9481 26.7568 42.9481 27.0185ZM41.8133 27.0185C41.8133 27.1899 41.8494 27.3252 41.9124 27.4064C41.9754 27.4966 42.0745 27.5417 42.2096 27.5417C42.4708 27.5417 42.6058 27.3703 42.6058 27.0185C42.6058 26.6666 42.4798 26.4952 42.2186 26.4952C42.0835 26.4952 41.9935 26.5403 41.9214 26.6306C41.8584 26.7208 41.8224 26.8471 41.8224 27.0275L41.8133 27.0185Z" fill="black"/>
<path id="Vector_25" d="M44.6772 27.0185C44.6772 27.2801 44.6141 27.4695 44.4881 27.6139C44.362 27.7492 44.1819 27.8214 43.9387 27.8214C43.6956 27.8214 43.5155 27.7492 43.3894 27.6139C43.2633 27.4785 43.2003 27.2801 43.2003 27.0185C43.2003 26.7568 43.2633 26.5584 43.3894 26.4231C43.5155 26.2877 43.7046 26.2156 43.9387 26.2156C44.1729 26.2156 44.362 26.2877 44.4881 26.4231C44.6141 26.5584 44.6772 26.7568 44.6772 27.0185ZM43.5425 27.0185C43.5425 27.1899 43.5785 27.3252 43.6415 27.4064C43.7046 27.4966 43.8036 27.5417 43.9387 27.5417C44.1999 27.5417 44.335 27.3703 44.335 27.0185C44.335 26.6666 44.2089 26.4952 43.9477 26.4952C43.8126 26.4952 43.7226 26.5403 43.6505 26.6306C43.5875 26.7208 43.5515 26.8471 43.5515 27.0275L43.5425 27.0185Z" fill="black"/>
<path id="Vector_26" d="M46.2441 27.7942H45.8749L45.4696 27.1357L45.3346 27.2349V27.7942H45.0013V26.2426H45.3346V26.9552L45.4606 26.7748L45.8839 26.2426H46.2531L45.7128 26.9282L46.2621 27.7942H46.2441Z" fill="black"/>
<path id="Vector_27" d="M48.3785 27.7942H47.9642L47.2888 26.6214H47.2798C47.2888 26.8289 47.2978 26.9733 47.2978 27.0635V27.7942H47.0006V26.2426H47.4149L48.0903 27.4063C48.0813 27.2078 48.0723 27.0635 48.0723 26.9823V26.2426H48.3695V27.7942H48.3785Z" fill="black"/>
<path id="Vector_28" d="M50.1796 27.0185C50.1796 27.2801 50.1166 27.4695 49.9905 27.6139C49.8644 27.7492 49.6843 27.8214 49.4412 27.8214C49.198 27.8214 49.0179 27.7492 48.8918 27.6139C48.7657 27.4785 48.7027 27.2801 48.7027 27.0185C48.7027 26.7568 48.7657 26.5584 48.8918 26.4231C49.0179 26.2877 49.207 26.2156 49.4412 26.2156C49.6753 26.2156 49.8644 26.2877 49.9905 26.4231C50.1166 26.5584 50.1796 26.7568 50.1796 27.0185ZM49.0449 27.0185C49.0449 27.1899 49.0809 27.3252 49.144 27.4064C49.207 27.4966 49.3061 27.5417 49.4412 27.5417C49.7023 27.5417 49.8374 27.3703 49.8374 27.0185C49.8374 26.6666 49.7113 26.4952 49.4502 26.4952C49.3151 26.4952 49.225 26.5403 49.153 26.6306C49.0899 26.7208 49.0539 26.8471 49.0539 27.0275L49.0449 27.0185Z" fill="black"/>
<path id="Vector_29" d="M52.0168 27.7943H51.6385L51.4314 26.9734C51.4314 26.9734 51.4134 26.8832 51.3954 26.7929C51.3774 26.7027 51.3684 26.6396 51.3594 26.6125C51.3594 26.6486 51.3413 26.7118 51.3233 26.7929C51.3053 26.8741 51.2963 26.9373 51.2873 26.9734L51.0802 27.7853H50.7109L50.3147 26.2336H50.6389L50.837 27.0816C50.8731 27.235 50.9001 27.3703 50.9091 27.4876C50.9091 27.4515 50.9271 27.3883 50.9361 27.2981C50.9541 27.2169 50.9631 27.1448 50.9811 27.0997L51.2063 26.2246H51.5215L51.7466 27.0997C51.7466 27.0997 51.7646 27.1989 51.7826 27.2801C51.8006 27.3613 51.8096 27.4244 51.8186 27.4876C51.8186 27.4334 51.8367 27.3613 51.8547 27.2801C51.8727 27.1989 51.8817 27.1267 51.8997 27.0816L52.0978 26.2336H52.422L52.0258 27.7853L52.0168 27.7943Z" fill="black"/>
<path id="Vector_30" d="M52.5301 27.6408C52.5301 27.5777 52.5481 27.5326 52.5751 27.5055C52.6111 27.4785 52.6562 27.4604 52.7102 27.4604C52.7642 27.4604 52.8183 27.4785 52.8453 27.5055C52.8813 27.5326 52.8903 27.5777 52.8903 27.6408C52.8903 27.704 52.8723 27.7401 52.8453 27.7762C52.8093 27.8122 52.7642 27.8213 52.7102 27.8213C52.6562 27.8213 52.6021 27.8032 52.5751 27.7762C52.5391 27.7491 52.5301 27.704 52.5301 27.6408ZM52.8453 27.28H52.5841L52.5301 26.2426H52.8993L52.8453 27.28Z" fill="black"/>
</g>
<path id="Vector_31" d="M50.5939 14.47H38.7064V14.9473H50.5939V14.47Z" fill="#D8D8D8"/>
<path id="Vector_32" d="M54.4934 16.0939H38.7064V16.5712H54.4934V16.0939Z" fill="#D8D8D8"/>
<path id="Vector_33" d="M54.4934 17.7177H38.7064V18.195H54.4934V17.7177Z" fill="#D8D8D8"/>
<path id="Vector_34" d="M54.4934 19.3414H38.7064V19.8187H54.4934V19.3414Z" fill="#D8D8D8"/>
<path id="Vector_35" d="M54.4934 20.9742H38.7064V21.4515H54.4934V20.9742Z" fill="#D8D8D8"/>
<path id="Vector_36" d="M54.4934 22.5981H38.7064V23.0754H54.4934V22.5981Z" fill="#D8D8D8"/>
<path id="Vector_37" d="M55.4029 31.8629H18.7589V35.1557H55.4029V31.8629Z" fill="#D8D8D8"/>
</g>
<g id="Group_6">
<path id="Vector_38" d="M48.0993 45.1151H65.7144C67.1823 45.1151 68.3801 46.3149 68.3801 47.7854V57.3298C68.3801 58.8003 67.1823 60.0001 65.7144 60.0001H48.0993C46.6313 60.0001 45.4336 58.8003 45.4336 57.3298V47.7854C45.4336 46.3149 46.6313 45.1151 48.0993 45.1151Z" fill="#383838"/>
<path id="Vector_39" d="M57.141 45.1151V60.0001H48.0993C46.6313 60.0001 45.4336 58.8003 45.4336 57.3298V47.7854C45.4336 46.3149 46.6313 45.1151 48.0993 45.1151H57.141Z" fill="#4D4F4E"/>
<path id="Vector_40" d="M42.822 39.4949H60.4371C61.6618 39.4949 62.6525 40.4872 62.6525 41.7141V51.2585C62.6525 52.4854 61.6618 53.4777 60.4371 53.4777H42.822C41.5972 53.4777 40.6066 52.4854 40.6066 51.2585V41.7141C40.6066 40.4872 41.5972 39.4949 42.822 39.4949Z" fill="#FFAC12"/>
<path id="Vector_41" d="M51.6295 39.4949V53.4777H42.822C41.5972 53.4777 40.6066 52.4854 40.6066 51.2585V41.7141C40.6066 40.4872 41.5972 39.4949 42.822 39.4949H51.6295Z" fill="#FFCA00"/>
<path id="Vector_42" d="M62.6525 42.6162H40.6066V46.5404H62.6525V42.6162Z" fill="#EF3F0F"/>
<path id="Vector_43" d="M50.0355 49.9866H42.6238C42.4257 49.9866 42.2636 49.8242 42.2636 49.6257C42.2636 49.4273 42.4257 49.2649 42.6238 49.2649H50.0355C50.2336 49.2649 50.3957 49.4273 50.3957 49.6257C50.3957 49.8242 50.2336 49.9866 50.0355 49.9866Z" fill="#231F20"/>
<path id="Vector_44" d="M53.6288 55.0925H49.252C49.0539 55.0925 48.8918 54.9302 48.8918 54.7317C48.8918 54.5332 49.0539 54.3708 49.252 54.3708H53.6288C53.8269 54.3708 53.989 54.5332 53.989 54.7317C53.989 54.9302 53.8269 55.0925 53.6288 55.0925Z" fill="white"/>
<path id="Vector_45" d="M58.0145 57.6184H49.252C49.0539 57.6184 48.8918 57.456 48.8918 57.2576C48.8918 57.0591 49.0539 56.8967 49.252 56.8967H58.0145C58.2127 56.8967 58.3748 57.0591 58.3748 57.2576C58.3748 57.456 58.2127 57.6184 58.0145 57.6184Z" fill="white"/>
<path id="Vector_46" d="M64.4896 54.7227C64.0664 54.7227 63.6971 54.9301 63.472 55.2459C63.2468 54.9301 62.8686 54.7227 62.4543 54.7227C61.7609 54.7227 61.1935 55.291 61.1935 55.9856C61.1935 56.6803 61.7609 57.2486 62.4543 57.2486C62.8776 57.2486 63.2468 57.0411 63.472 56.7254C63.6971 57.0411 64.0754 57.2486 64.4896 57.2486C65.1831 57.2486 65.7504 56.6803 65.7504 55.9856C65.7504 55.291 65.1831 54.7227 64.4896 54.7227Z" fill="#EF3F0F"/>
<path id="Vector_47" d="M62.6525 42.6162H51.6295V46.5404H62.6525V42.6162Z" fill="#CC2A05"/>
</g>
</g>
<defs>
<clipPath id="clip0_1_287">
<rect width="73" height="60" fill="white"/>
</clipPath>
</defs>
</svg>
