<svg width="51" height="50" viewBox="0 0 51 50" fill="none" xmlns="http://www.w3.org/2000/svg">
<g id="Group">
<path id="Vector" d="M25.2203 50C11.4643 50 0.254692 38.775 0.254692 25C0.254692 11.225 11.4643 0 25.2203 0C38.9764 0 50.186 11.225 50.186 25C50.186 38.775 38.9764 50 25.2203 50ZM25.2203 1.05C12.0385 1.05 1.30325 11.8 1.30325 25C1.30325 38.2 12.0385 48.95 25.2203 48.95C38.4022 48.95 49.1374 38.2 49.1374 25C49.1374 11.8 38.4272 1.05 25.2203 1.05Z" fill="white"/>
<path id="Vector_2" d="M13.6862 33.2501C15.7833 34.6001 18.2799 35.3751 20.9512 35.3751C29.7391 35.3751 34.7073 27.9251 34.4077 21.2751C35.3314 20.6001 36.1303 19.7751 36.7794 18.8251C35.9306 19.2001 35.0069 19.4501 34.0582 19.5751C35.0318 19.0001 35.7808 18.0501 36.1303 16.9501C35.2066 17.5001 34.208 17.9001 33.1345 18.1001C32.2607 17.1751 31.0373 16.6001 29.6642 16.6001C26.6184 16.6001 24.3715 19.4501 25.0456 22.4251C21.101 22.2251 17.6058 20.3501 15.284 17.4751C14.0357 19.6001 14.6349 22.4001 16.757 23.8001C15.9831 23.8001 15.2591 23.5501 14.6099 23.2001C14.56 25.4001 16.1328 27.4501 18.4047 27.9001C17.7306 28.0751 17.0066 28.1251 16.2577 27.9751C16.8569 29.8501 18.6044 31.2251 20.6766 31.2751C18.6793 32.8501 16.1828 33.5251 13.6613 33.2501H13.6862Z" fill="white"/>
</g>
</svg>
