<svg width="50" height="50" viewBox="0 0 50 50" fill="none" xmlns="http://www.w3.org/2000/svg">
<g id="Group">
<path id="Vector" d="M25.0344 50C11.2783 50 0.0687256 38.775 0.0687256 25C0.0687256 11.225 11.2533 0 25.0344 0C38.8154 0 50 11.225 50 25C50 38.775 38.7904 50 25.0344 50ZM25.0344 1.05C11.8525 1.05 1.11728 11.8 1.11728 25C1.11728 38.2 11.8525 48.95 25.0344 48.95C38.2162 48.95 48.9514 38.2 48.9514 25C48.9514 11.8 38.2162 1.05 25.0344 1.05Z" fill="white"/>
<path id="Vector_2" d="M26.033 15C28.2799 15.1 31.5504 15.25 34.8209 15.425C35.6947 15.475 36.5685 15.625 37.2925 16.175C38.0165 16.725 38.5408 17.4 38.6906 18.3C38.8903 19.6 39.09 20.9 39.1649 22.2C39.3647 25.05 39.2898 27.925 38.8903 30.775C38.7655 31.7 38.5658 32.625 37.8667 33.35C37.3424 33.925 36.7183 34.35 35.9444 34.425C34.5213 34.6 33.0983 34.775 31.6503 34.85C26.6821 35.075 21.689 35.075 16.7208 34.75C15.847 34.7 14.9732 34.575 14.0994 34.45C12.6514 34.2 11.528 33.15 11.2783 31.725C11.0536 30.45 10.8789 29.15 10.804 27.875C10.6292 25.025 10.6791 22.175 11.0786 19.35C11.2034 18.425 11.4031 17.5 12.0772 16.775C12.6265 16.2 13.2506 15.75 14.0495 15.65C15.4975 15.475 16.9205 15.3 18.3685 15.225C20.5655 15.125 22.7625 15.1 25.9831 15.025L26.033 15ZM22.1883 20.75V29.275C24.6849 27.85 27.1065 26.45 29.5781 25" fill="white"/>
</g>
</svg>
